<mxfile host="app.diagrams.net" modified="2024-06-06T17:02:10.780Z" agent="Mozilla/5.0 (Windows NT 10.0; Win64; x64) AppleWebKit/537.36 (KHTML, like Gecko) Chrome/123.0.0.0 Safari/537.36 OPR/109.0.0.0" etag="qrbCKRUsDmWpL9fr82nR" version="24.5.1" type="device">
  <diagram name="Page-1" id="pe52HGPeSi2s6OKuyh_Y">
    <mxGraphModel dx="1162" dy="683" grid="1" gridSize="10" guides="1" tooltips="1" connect="1" arrows="1" fold="1" page="1" pageScale="1" pageWidth="850" pageHeight="1100" math="0" shadow="0">
      <root>
        <mxCell id="0" />
        <mxCell id="1" parent="0" />
        <mxCell id="BFWfgl-I0xqWNeOx7CLU-1" value="Developer&#39;s computer" style="rounded=0;whiteSpace=wrap;html=1;" parent="1" vertex="1">
          <mxGeometry x="365.5" y="160" width="120" height="60" as="geometry" />
        </mxCell>
        <mxCell id="BFWfgl-I0xqWNeOx7CLU-2" value="" style="rounded=0;whiteSpace=wrap;html=1;" parent="1" vertex="1">
          <mxGeometry x="98" y="290" width="652" height="340" as="geometry" />
        </mxCell>
        <mxCell id="BFWfgl-I0xqWNeOx7CLU-3" value="" style="rounded=0;whiteSpace=wrap;html=1;" parent="1" vertex="1">
          <mxGeometry x="113" y="340" width="617" height="270" as="geometry" />
        </mxCell>
        <mxCell id="BFWfgl-I0xqWNeOx7CLU-4" value="GitLab Server" style="text;html=1;align=center;verticalAlign=middle;whiteSpace=wrap;rounded=0;" parent="1" vertex="1">
          <mxGeometry x="113" y="300" width="85" height="30" as="geometry" />
        </mxCell>
        <mxCell id="BFWfgl-I0xqWNeOx7CLU-5" value="CI Pipeline" style="text;html=1;align=center;verticalAlign=middle;whiteSpace=wrap;rounded=0;" parent="1" vertex="1">
          <mxGeometry x="125.5" y="350" width="60" height="30" as="geometry" />
        </mxCell>
        <mxCell id="1nu3xd6Rph8kpx9iKQOS-1" value="" style="edgeStyle=orthogonalEdgeStyle;rounded=0;orthogonalLoop=1;jettySize=auto;html=1;" edge="1" parent="1" source="BFWfgl-I0xqWNeOx7CLU-6" target="BFWfgl-I0xqWNeOx7CLU-7">
          <mxGeometry relative="1" as="geometry" />
        </mxCell>
        <mxCell id="BFWfgl-I0xqWNeOx7CLU-6" value="Build Stage (Gradle)&lt;br&gt;&lt;font style=&quot;font-size: 11px;&quot;&gt;(This stage compiles the project.)&lt;/font&gt;" style="rounded=0;whiteSpace=wrap;html=1;" parent="1" vertex="1">
          <mxGeometry x="176.25" y="390" width="115.5" height="80" as="geometry" />
        </mxCell>
        <mxCell id="BFWfgl-I0xqWNeOx7CLU-7" value="Test Stage (Jacoco Test Report) &lt;br&gt;&lt;font style=&quot;font-size: 11px;&quot;&gt;(This stage runs the tests and generates a test report.)&lt;/font&gt;" style="rounded=0;whiteSpace=wrap;html=1;" parent="1" vertex="1">
          <mxGeometry x="160" y="510" width="148" height="80" as="geometry" />
        </mxCell>
        <mxCell id="1_TNg-_M6LVk5pwfLFJ7-3" style="edgeStyle=orthogonalEdgeStyle;rounded=0;orthogonalLoop=1;jettySize=auto;html=1;entryX=0;entryY=0.25;entryDx=0;entryDy=0;" parent="1" source="BFWfgl-I0xqWNeOx7CLU-8" target="1_TNg-_M6LVk5pwfLFJ7-1" edge="1">
          <mxGeometry relative="1" as="geometry" />
        </mxCell>
        <mxCell id="BFWfgl-I0xqWNeOx7CLU-8" value="Sonar Stage (SonarQube)&lt;br&gt;&lt;font style=&quot;font-size: 11px;&quot;&gt;(This stage analyzes the code for quality and security issues.)&lt;/font&gt;" style="rounded=0;whiteSpace=wrap;html=1;" parent="1" vertex="1">
          <mxGeometry x="350" y="390" width="123" height="80" as="geometry" />
        </mxCell>
        <mxCell id="BFWfgl-I0xqWNeOx7CLU-10" value="" style="endArrow=classic;html=1;rounded=0;entryX=0.5;entryY=0;entryDx=0;entryDy=0;" parent="1" source="BFWfgl-I0xqWNeOx7CLU-1" target="BFWfgl-I0xqWNeOx7CLU-2" edge="1">
          <mxGeometry width="50" height="50" relative="1" as="geometry">
            <mxPoint x="323" y="530" as="sourcePoint" />
            <mxPoint x="413" y="290" as="targetPoint" />
          </mxGeometry>
        </mxCell>
        <mxCell id="BFWfgl-I0xqWNeOx7CLU-11" value="" style="endArrow=classic;html=1;rounded=0;exitX=1;exitY=0.5;exitDx=0;exitDy=0;entryX=0.5;entryY=1;entryDx=0;entryDy=0;" parent="1" source="BFWfgl-I0xqWNeOx7CLU-7" target="BFWfgl-I0xqWNeOx7CLU-8" edge="1">
          <mxGeometry width="50" height="50" relative="1" as="geometry">
            <mxPoint x="323" y="530" as="sourcePoint" />
            <mxPoint x="373" y="480" as="targetPoint" />
            <Array as="points">
              <mxPoint x="410" y="550" />
            </Array>
          </mxGeometry>
        </mxCell>
        <mxCell id="BFWfgl-I0xqWNeOx7CLU-12" value="" style="endArrow=classic;html=1;rounded=0;entryX=0.5;entryY=0;entryDx=0;entryDy=0;exitX=0.504;exitY=0.998;exitDx=0;exitDy=0;exitPerimeter=0;" parent="1" target="BFWfgl-I0xqWNeOx7CLU-13" edge="1" source="BFWfgl-I0xqWNeOx7CLU-3">
          <mxGeometry width="50" height="50" relative="1" as="geometry">
            <mxPoint x="390" y="750" as="sourcePoint" />
            <mxPoint x="163" y="580" as="targetPoint" />
            <Array as="points" />
          </mxGeometry>
        </mxCell>
        <mxCell id="BFWfgl-I0xqWNeOx7CLU-13" value="GitLab Runner&lt;br&gt;(set up locally)" style="rounded=0;whiteSpace=wrap;html=1;" parent="1" vertex="1">
          <mxGeometry x="364" y="680" width="120" height="60" as="geometry" />
        </mxCell>
        <mxCell id="BFWfgl-I0xqWNeOx7CLU-14" value="Push code changes" style="text;html=1;align=center;verticalAlign=middle;whiteSpace=wrap;rounded=0;" parent="1" vertex="1">
          <mxGeometry x="425.5" y="240" width="60" height="30" as="geometry" />
        </mxCell>
        <mxCell id="1_TNg-_M6LVk5pwfLFJ7-5" style="edgeStyle=orthogonalEdgeStyle;rounded=0;orthogonalLoop=1;jettySize=auto;html=1;entryX=0.5;entryY=0;entryDx=0;entryDy=0;" parent="1" source="1_TNg-_M6LVk5pwfLFJ7-1" target="1_TNg-_M6LVk5pwfLFJ7-4" edge="1">
          <mxGeometry relative="1" as="geometry" />
        </mxCell>
        <mxCell id="1_TNg-_M6LVk5pwfLFJ7-1" value="Deploy Stage (Docker)&lt;br&gt;&lt;font style=&quot;font-size: 10px;&quot;&gt;(This stage handles the deployment of the application.)&lt;br&gt;(1. Clones the frontend repository&lt;br&gt;2. Builds the backend image&lt;br&gt;3. Builds the frontend image&lt;br&gt;4. Runs &quot;docker compose up&quot;&lt;/font&gt;" style="rounded=0;whiteSpace=wrap;html=1;" parent="1" vertex="1">
          <mxGeometry x="580" y="388.75" width="133" height="161.25" as="geometry" />
        </mxCell>
        <mxCell id="1_TNg-_M6LVk5pwfLFJ7-4" value="Docker&lt;br&gt;(set up locally)" style="rounded=0;whiteSpace=wrap;html=1;" parent="1" vertex="1">
          <mxGeometry x="586.5" y="680" width="120" height="60" as="geometry" />
        </mxCell>
        <mxCell id="1nu3xd6Rph8kpx9iKQOS-2" value="&lt;font style=&quot;font-size: 9px;&quot;&gt;(Only on Development or Main branch)&lt;/font&gt;" style="text;html=1;align=center;verticalAlign=middle;whiteSpace=wrap;rounded=0;" vertex="1" parent="1">
          <mxGeometry x="480" y="440" width="90" height="30" as="geometry" />
        </mxCell>
        <mxCell id="1nu3xd6Rph8kpx9iKQOS-3" value="GameHub CI/CD Pipeline Diagram" style="text;html=1;align=center;verticalAlign=middle;whiteSpace=wrap;rounded=0;fontSize=20;" vertex="1" parent="1">
          <mxGeometry x="269.5" y="100" width="312" height="30" as="geometry" />
        </mxCell>
        <mxCell id="1nu3xd6Rph8kpx9iKQOS-4" value="ran by" style="text;html=1;align=center;verticalAlign=middle;whiteSpace=wrap;rounded=0;" vertex="1" parent="1">
          <mxGeometry x="413" y="640" width="60" height="30" as="geometry" />
        </mxCell>
        <mxCell id="1nu3xd6Rph8kpx9iKQOS-5" value="ran by" style="text;html=1;align=center;verticalAlign=middle;whiteSpace=wrap;rounded=0;" vertex="1" parent="1">
          <mxGeometry x="640" y="640" width="60" height="30" as="geometry" />
        </mxCell>
      </root>
    </mxGraphModel>
  </diagram>
</mxfile>
